<?xml version="1.0" encoding="UTF-8"?>
<svg width="1200pt" height="1200pt" version="1.1" viewBox="0 0 1200 1200" xmlns="http://www.w3.org/2000/svg">
 <path d="m1197.4 526.14-60.48 14.773-32.219-35.496-19.465 23.258c-33.191-31.031-77.617-50.027-126.65-50.027-101.96 0-184.68 82.199-185.66 183.94h0.023438v114.61h42.109v52.906h53.051v177.42h77.988v53.543h-129.42l78.336 137.75h-51.059l-83.102-137.75h-111.23c4.0781 11.039 6.4062 22.906 6.4062 35.363 0 56.543-45.852 102.37-102.37 102.37-56.543 0-102.35-45.828-102.35-102.37 0-12.457 2.3398-24.324 6.4062-35.363h-132.85v-53.543h-56.461v-88.754l-216.52-131.54-39.035 23.449-12.504-21.047 287.84-172.98 12.504 21.059-37.043 22.262 93 211.92 75.742 42.562v-155.77h-26.258v-26.508h83.016v26.508h-25.871v159.25l19.969 0.12109v-87.949h190.85v-52.906h44.82v-112.79h-0.023438c0-0.16797 0.023438-0.3125 0.023438-0.48047v-1.332h0.070312c0.97266-131.52 107.8-237.85 239.57-237.85 50.172 0 96.457 15.602 134.88 41.941l7.1641-13.094zm-643.89 618.56c26.652 0 48.277-21.59 48.277-48.277 0-26.641-21.637-48.266-48.277-48.266-26.688 0-48.301 21.637-48.301 48.266-0.011719 26.691 21.613 48.277 48.301 48.277zm0-28.957c10.668 0 19.309-8.6641 19.309-19.332 0-10.656-8.6523-19.285-19.309-19.285-10.691 0-19.332 8.6406-19.332 19.285-0.011719 10.684 8.6406 19.332 19.332 19.332z"/>
</svg>
